<svg xmlns="http://www.w3.org/2000/svg" width="1000" height="350" viewBox="0, 0, 1000, 350"><path d="M303.192 96.19c-.148 8.476-7.147 15.235-15.623 15.087-8.478-.147-15.236-7.147-15.088-15.623.147-8.476 7.147-15.235 15.623-15.087 8.476.148 15.235 7.147 15.087 15.623m36.633-45.443c.05-2.876-2.472-5.16-5.35-5.212-55.662-.972-86.435 11.29-127.114 50.422-9.28 9.118-18.898 19.51-28.696 30.703l-60.674 2.137c-1.6.132-3.218 1.065-4.2 2.487l-36.903 60.8c-1.154 1.9-.878 4.465.692 6.252l10.057 10.416c.94.975 2.375 1.48 3.653 1.504.478.008.96.015 1.442-.136l44.383-12.825 44.16 45.73-14.367 43.913c-.51 1.75-.062 3.68 1.19 5.142l10.057 10.416c1.104.98 2.375 1.48 3.653 1.504.96.015 1.765-.13 2.573-.595l62.043-34.76c1.458-.933 2.445-2.518 2.63-4.116l4.26-60.566c11.524-9.4 22.243-18.655 31.68-27.61 38.57-37.406 53.903-72.5 54.832-125.607M384.938 107.21v47.085l47.877-47.084h16.268l-39.808 38.092 41.394 56.34h-15.873l-34.12-47.743-15.74 14.677v33.066h-12.563V107.21zm74.46 0h11.243v13.755H459.4zM470.638 201.644h-11.244v-68.377h11.243zm58.322-56.473c-2.82-2.383-6.61-3.572-11.37-3.572-4.06 0-7.455.75-10.188 2.246-2.732 1.5-4.916 3.487-6.544 5.954-1.633 2.468-2.802 5.313-3.506 8.53-.707 3.22-1.057 6.546-1.057 9.985 0 3.175.373 6.26 1.123 9.258.746 3 1.916 5.667 3.506 8.003 1.585 2.335 3.657 4.213 6.214 5.62 2.557 1.41 5.6 2.117 9.125 2.117 5.558 0 9.9-1.457 13.028-4.364 3.13-2.91 5.05-7.01 5.756-12.3h11.504c-1.236 8.464-4.388 14.99-9.456 19.57-5.07 4.587-11.97 6.88-20.698 6.88-5.204 0-9.81-.84-13.82-2.514-4.01-1.67-7.36-4.054-10.05-7.14-2.69-3.085-4.72-6.766-6.087-11.045-1.37-4.275-2.05-8.97-2.05-14.084 0-5.11.662-9.895 1.983-14.348 1.325-4.454 3.33-8.333 6.02-11.64 2.69-3.307 6.06-5.907 10.116-7.804 4.053-1.892 8.77-2.84 14.15-2.84 3.878 0 7.516.463 10.913 1.387 3.393.925 6.393 2.36 8.993 4.3 2.6 1.938 4.737 4.387 6.413 7.34 1.674 2.954 2.73 6.46 3.174 10.513h-11.64c-.882-4.318-2.732-7.672-5.554-10.05m42.055-37.96v55.946l31.215-29.89h15.076l-27.112 24.865 29.094 43.513h-14.283l-23.407-35.712-10.583 9.79v25.923h-11.24V107.21zm73.27 71.153c1.147 2.208 2.666 3.992 4.563 5.36 1.896 1.368 4.12 2.378 6.68 3.04 2.554.66 5.2.99 7.933.99 1.854 0 3.836-.152 5.955-.463 2.114-.307 4.1-.9 5.95-1.783 1.853-.883 3.392-2.095 4.628-3.638 1.236-1.544 1.854-3.507 1.854-5.885 0-2.557-.816-4.63-2.448-6.218-1.634-1.586-3.77-2.907-6.414-3.968-2.647-1.058-5.643-1.983-8.993-2.776-3.354-.793-6.747-1.675-10.186-2.647-3.525-.878-6.965-1.96-10.315-3.24-3.354-1.276-6.35-2.93-8.993-4.96-2.647-2.025-4.785-4.563-6.417-7.602-1.633-3.043-2.445-6.723-2.445-11.045 0-4.846 1.034-9.06 3.11-12.63 2.067-3.572 4.78-6.546 8.13-8.928 3.35-2.378 7.143-4.143 11.375-5.29 4.232-1.146 8.465-1.72 12.697-1.72 4.936 0 9.673.55 14.216 1.655 4.54 1.103 8.574 2.887 12.103 5.355 3.524 2.472 6.326 5.62 8.397 9.456 2.072 3.836 3.11 8.488 3.11 13.952H678.67c-.18-2.818-.773-5.157-1.784-7.007-1.018-1.854-2.363-3.308-4.034-4.365-1.68-1.057-3.595-1.807-5.756-2.25-2.16-.44-4.52-.66-7.073-.66-1.68 0-3.354.178-5.025.528-1.68.354-3.2.972-4.567 1.854-1.368.882-2.49 1.982-3.37 3.303-.88 1.325-1.324 3-1.324 5.03 0 1.85.352 3.35 1.06 4.496.703 1.145 2.09 2.202 4.166 3.17 2.067.972 4.936 1.943 8.597 2.91 3.657.973 8.44 2.205 14.348 3.705 1.762.353 4.21.99 7.343 1.916 3.128.93 6.233 2.406 9.323 4.43 3.086 2.034 5.752 4.743 8.002 8.135 2.246 3.397 3.37 7.738 3.37 13.028 0 4.32-.84 8.332-2.51 12.036-1.68 3.702-4.167 6.897-7.475 9.586-3.307 2.69-7.407 4.785-12.3 6.285-4.893 1.497-10.56 2.247-16.995 2.247-5.204 0-10.25-.64-15.142-1.916-4.893-1.278-9.214-3.283-12.96-6.02-3.75-2.73-6.724-6.213-8.928-10.446-2.207-4.232-3.264-9.257-3.175-15.08h20.104c0 3.176.572 5.866 1.718 8.07m105.54-45.098v12.564H736.07v33.86c0 3.17.53 5.288 1.586 6.345 1.057 1.057 3.175 1.586 6.346 1.586 1.06 0 2.072-.042 3.043-.13.972-.087 1.897-.22 2.78-.398v14.55c-1.59.265-3.355.44-5.29.53-1.944.085-3.836.132-5.69.132-2.907 0-5.666-.2-8.266-.595-2.6-.397-4.894-1.17-6.876-2.317-1.986-1.143-3.553-2.78-4.695-4.893-1.148-2.115-1.723-4.893-1.723-8.333V145.83h-11.37v-12.564h11.37v-20.5h18.783v20.5zm26.978 21.03c.35-3.705 1.586-6.35 3.7-7.937 2.118-1.587 5.03-2.383 8.73-2.383 1.674 0 3.24.112 4.698.334 1.454.218 2.73.66 3.833 1.322 1.103.66 1.986 1.586 2.646 2.775.66 1.193.99 2.802.99 4.83.09 1.94-.485 3.417-1.717 4.43-1.236 1.016-2.91 1.785-5.026 2.314-2.118.53-4.543.926-7.275 1.19-2.732.264-5.51.618-8.332 1.06-2.822.44-5.62 1.04-8.4 1.785-2.774.75-5.245 1.873-7.402 3.373-2.165 1.5-3.926 3.506-5.294 6.016-1.368 2.515-2.048 5.71-2.048 9.588 0 3.53.595 6.572 1.784 9.125 1.193 2.56 2.845 4.676 4.96 6.35 2.117 1.676 4.585 2.912 7.407 3.704 2.82.794 5.864 1.19 9.125 1.19 4.232 0 8.375-.617 12.432-1.85 4.054-1.235 7.583-3.392 10.58-6.482.09 1.147.244 2.27.466 3.374.217 1.103.505 2.18.858 3.24h19.044c-.882-1.41-1.5-3.524-1.85-6.35-.354-2.82-.53-5.77-.53-8.86v-35.577c0-4.142-.928-7.473-2.778-9.984-1.85-2.513-4.232-4.472-7.143-5.887-2.906-1.406-6.128-2.355-9.652-2.84-3.53-.486-7.012-.727-10.447-.727-3.792 0-7.562.373-11.308 1.123-3.747.75-7.12 2.004-10.117 3.77-3 1.763-5.468 4.1-7.407 7.006-1.94 2.91-3.043 6.572-3.308 10.98zM801.4 175.19c0 1.057-.108 2.468-.33 4.232-.222 1.765-.816 3.502-1.784 5.224-.97 1.717-2.472 3.194-4.496 4.43-2.03 1.236-4.893 1.85-8.597 1.85-1.5 0-2.958-.132-4.365-.396-1.41-.265-2.646-.727-3.703-1.388-1.057-.66-1.897-1.566-2.515-2.712-.618-1.143-.925-2.558-.925-4.233 0-1.76.307-3.22.925-4.365.618-1.143 1.434-2.09 2.45-2.84 1.01-.75 2.202-1.346 3.57-1.79 1.364-.438 2.756-.792 4.166-1.056 1.497-.265 2.997-.487 4.497-.662 1.496-.175 2.93-.396 4.298-.66 1.366-.265 2.644-.6 3.837-.995 1.19-.397 2.18-.945 2.973-1.652zm51.184-41.926v12.697h.264c.88-2.12 2.072-4.077 3.572-5.884 1.496-1.81 3.214-3.352 5.157-4.634 1.936-1.275 4.01-2.266 6.215-2.973 2.203-.707 4.496-1.057 6.88-1.057 1.23 0 2.6.217 4.1.66v17.458c-.884-.18-1.945-.33-3.177-.462-1.235-.132-2.425-.2-3.57-.2-3.44 0-6.348.573-8.73 1.72-2.378 1.146-4.298 2.712-5.752 4.694-1.457 1.982-2.49 4.298-3.11 6.945-.617 2.644-.924 5.512-.924 8.598v30.815h-18.78v-68.377zm71.152 0v12.564h-13.754v33.86c0 3.17.53 5.288 1.586 6.345 1.057 1.057 3.175 1.586 6.346 1.586 1.06 0 2.072-.042 3.043-.13.968-.087 1.897-.22 2.78-.398v14.55c-1.59.265-3.355.44-5.294.53-1.94.085-3.832.132-5.686.132-2.91 0-5.666-.2-8.266-.595-2.6-.397-4.892-1.17-6.874-2.317-1.986-1.143-3.552-2.78-4.695-4.893-1.145-2.115-1.72-4.893-1.72-8.333V145.83h-11.372v-12.564h11.37v-20.5h18.784v20.5z"/></svg>