<?xml version="1.0" encoding="UTF-8"?>
<!DOCTYPE svg PUBLIC "-//W3C//DTD SVG 1.1//EN" "http://www.w3.org/Graphics/SVG/1.1/DTD/svg11.dtd">
<svg version="1.1" xmlns="http://www.w3.org/2000/svg" xmlns:xlink="http://www.w3.org/1999/xlink" x="0" y="0" width="25" height="50" viewBox="0, 0, 25, 50">
  <g id="Ebene_1">
    <g>
      <path d="M0,0 L25,0 L25,25 L0,25 L0,0 z" fill="#F4F4F4"/>
      <path d="M25,0 L25,25 L0,25 L0,0 L25,0 z M24,1 L1,1 L1,24 L24,24 L24,1 z" fill="#CCCCCC"/>
    </g>
    <g>
      <path d="M0,25 L25,25 L25,50 L0,50 L0,25 z" fill="#3A99A3"/>
      <path d="M25,25 L25,50 L0,50 L0,25 L25,25 z M24,26 L1,26 L1,49 L24,49 L24,26 z" fill="#3A99A3"/>
    </g>
    <path d="M21.081,33.492 C21.081,33.216 20.971,32.938 20.772,32.739 L19.266,31.233 C19.066,31.033 18.789,30.922 18.513,30.922 C18.235,30.922 17.959,31.033 17.759,31.233 L10.497,38.507 L7.241,35.241 C7.042,35.041 6.765,34.932 6.488,34.932 C6.211,34.932 5.934,35.041 5.734,35.241 L4.23,36.748 C4.029,36.946 3.919,37.224 3.919,37.5 C3.919,37.778 4.029,38.054 4.23,38.252 L8.238,42.262 L9.743,43.767 C9.943,43.967 10.219,44.078 10.497,44.078 C10.773,44.078 11.051,43.967 11.249,43.767 L12.755,42.262 L20.772,34.244 C20.971,34.046 21.081,33.768 21.081,33.492" fill="#FEFEFE"/>
  </g>
</svg>
