<?xml version="1.0" encoding="UTF-8"?>
<!DOCTYPE svg PUBLIC "-//W3C//DTD SVG 1.1//EN" "http://www.w3.org/Graphics/SVG/1.1/DTD/svg11.dtd">
<svg version="1.1" xmlns="http://www.w3.org/2000/svg" xmlns:xlink="http://www.w3.org/1999/xlink" x="0" y="0" width="25" height="50" viewBox="0, 0, 25, 50">
  <g id="Ebene_1">
    <g>
      <path d="M12.5,25 C5.596,25 0,19.404 0,12.5 C0,5.596 5.596,0 12.5,0 C19.404,0 25,5.596 25,12.5 C25,19.404 19.404,25 12.5,25 z" fill="#F4F4F4"/>
      <path d="M12.5,0 C19.404,0 25,5.596 25,12.5 C25,19.404 19.404,25 12.5,25 C5.596,25 0,19.404 0,12.5 C0,5.596 5.596,0 12.5,0 z M12.5,1 C6.149,1 1,6.149 1,12.5 C1,18.851 6.149,24 12.5,24 C18.851,24 24,18.851 24,12.5 C24,6.149 18.851,1 12.5,1 z" fill="#CCCCCC"/>
    </g>
    <g>
      <path d="M12.5,50 C5.596,50 0,44.404 0,37.5 C0,30.596 5.596,25 12.5,25 C19.404,25 25,30.596 25,37.5 C25,44.404 19.404,50 12.5,50 z" fill="#F4F4F4"/>
      <path d="M12.5,25 C19.404,25 25,30.596 25,37.5 C25,44.404 19.404,50 12.5,50 C5.596,50 0,44.404 0,37.5 C0,30.596 5.596,25 12.5,25 z M12.5,26 C6.149,26 1,31.149 1,37.5 C1,43.851 6.149,49 12.5,49 C18.851,49 24,43.851 24,37.5 C24,31.149 18.851,26 12.5,26 z" fill="#BBBBBB"/>
    </g>
    <path d="M12.5,45.688 C7.978,45.688 4.313,42.022 4.313,37.5 C4.313,32.978 7.978,29.312 12.5,29.312 C17.022,29.312 20.688,32.978 20.688,37.5 C20.688,42.022 17.022,45.688 12.5,45.688 z" fill="#3A99A3"/>
  </g>
</svg>
